<svg version="1.1" xmlns="http://www.w3.org/2000/svg" xmlns:xlink="http://www.w3.org/1999/xlink" width="250" height="450" viewBox="0 0 250 450">

<!-- show white elements polygon -->
<!-- polygon fill="#ffc107" points="0 0 25 0 25 450 0 450"></polygon -->


<svg id="icon-email" width="24" height="24" viewBox="0 0 24 24" x="0" y="0">
<path fill="#ffffff" d="M20,4 L4,4 C2.9,4 2.01,4.9 2.01,6 L2,18 C2,19.1 2.9,20 4,20 L20,20 C21.1,20 22,19.1 22,18 L22,6 C22,4.9 21.1,4 20,4 L20,4 Z M20,8 L12,13 L4,8 L4,6 L12,11 L20,6 L20,8 L20,8 Z"></path>
</svg>
<svg id="icon-email-active" width="24" height="24" viewBox="0 0 24 24" x="25" y="0">
<path fill="#ffc107" d="M20,4 L4,4 C2.9,4 2.01,4.9 2.01,6 L2,18 C2,19.1 2.9,20 4,20 L20,20 C21.1,20 22,19.1 22,18 L22,6 C22,4.9 21.1,4 20,4 L20,4 Z M20,8 L12,13 L4,8 L4,6 L12,11 L20,6 L20,8 L20,8 Z"></path>
</svg>

<svg id="icon-home" width="24" height="24" viewBox="0 0 24 24" x="0" y="25">
    <polygon fill="#FFFFFF" points="10 20 10 14 14 14 14 20 19 20 19 12 22 12 12 3 2 12 5 12 5 20"></polygon>
</svg>
<svg id="icon-home-active" width="24" height="24" viewBox="0 0 24 24" x="25" y="25">
    <polygon fill="#ffc107" points="10 20 10 14 14 14 14 20 19 20 19 12 22 12 12 3 2 12 5 12 5 20"></polygon>
</svg>

<svg id="icon-menu" width="24" height="24" viewBox="0 0 24 24" x="0" y="50">
<path fill="#ffffff" d="M3,18 L21,18 L21,16 L3,16 L3,18 L3,18 Z M3,13 L21,13 L21,11 L3,11 L3,13 L3,13 Z M3,6 L3,8 L21,8 L21,6 L3,6 L3,6 Z"></path>
</svg>
<svg id="icon-menu-active" width="24" height="24" viewBox="0 0 24 24" x="25" y="50">
<path fill="#ffc107" d="M3,18 L21,18 L21,16 L3,16 L3,18 L3,18 Z M3,13 L21,13 L21,11 L3,11 L3,13 L3,13 Z M3,6 L3,8 L21,8 L21,6 L3,6 L3,6 Z"></path>
</svg>

<svg id="icon-notifications" width="24" height="24" viewBox="0 0 24 24" x="0" y="75">
<path fill="#ffffff" d="M18,11 C18,7.93 16.36,5.36 13.5,4.68 L13.5,4 C13.5,3.17 12.83,2.5 12,2.5 C11.17,2.5 10.5,3.17 10.5,4 L10.5,4.68 C7.63,5.36 6,7.92 6,11 L6,16 L4,18 L4,19 L20,19 L20,18 L18,16 L18,11 L18,11 Z M12,22 C12.14,22 12.27,21.99 12.4,21.96 C13.05,21.82 13.58,21.38 13.84,20.78 C13.94,20.54 13.99,20.28 13.99,20 L9.99,20 C10,21.1 10.89,22 12,22 L12,22 Z"></path>
</svg>
<svg id="icon-notifications-active" width="24" height="24" viewBox="0 0 24 24" x="25" y="75">
<path fill="#ffc107" d="M18,11 C18,7.93 16.36,5.36 13.5,4.68 L13.5,4 C13.5,3.17 12.83,2.5 12,2.5 C11.17,2.5 10.5,3.17 10.5,4 L10.5,4.68 C7.63,5.36 6,7.92 6,11 L6,16 L4,18 L4,19 L20,19 L20,18 L18,16 L18,11 L18,11 Z M12,22 C12.14,22 12.27,21.99 12.4,21.96 C13.05,21.82 13.58,21.38 13.84,20.78 C13.94,20.54 13.99,20.28 13.99,20 L9.99,20 C10,21.1 10.89,22 12,22 L12,22 Z"></path>
</svg>

<svg id="icon-people" width="24" height="24" viewBox="0 0 24 24" x="0" y="100">
<path fill="#ffffff" d="M16,11 C17.66,11 18.99,9.66 18.99,8 C18.99,6.34 17.66,5 16,5 C14.34,5 13,6.34 13,8 C13,9.66 14.34,11 16,11 L16,11 Z M8,11 C9.66,11 10.99,9.66 10.99,8 C10.99,6.34 9.66,5 8,5 C6.34,5 5,6.34 5,8 C5,9.66 6.34,11 8,11 L8,11 Z M8,13 C5.67,13 1,14.17 1,16.5 L1,19 L15,19 L15,16.5 C15,14.17 10.33,13 8,13 L8,13 Z M16,13 C15.71,13 15.38,13.02 15.03,13.05 C16.19,13.89 17,15.02 17,16.5 L17,19 L23,19 L23,16.5 C23,14.17 18.33,13 16,13 L16,13 Z"></path>
</svg>
<svg id="icon-people-active" width="24" height="24" viewBox="0 0 24 24" x="25" y="100">
<path fill="#ffc107" d="M16,11 C17.66,11 18.99,9.66 18.99,8 C18.99,6.34 17.66,5 16,5 C14.34,5 13,6.34 13,8 C13,9.66 14.34,11 16,11 L16,11 Z M8,11 C9.66,11 10.99,9.66 10.99,8 C10.99,6.34 9.66,5 8,5 C6.34,5 5,6.34 5,8 C5,9.66 6.34,11 8,11 L8,11 Z M8,13 C5.67,13 1,14.17 1,16.5 L1,19 L15,19 L15,16.5 C15,14.17 10.33,13 8,13 L8,13 Z M16,13 C15.71,13 15.38,13.02 15.03,13.05 C16.19,13.89 17,15.02 17,16.5 L17,19 L23,19 L23,16.5 C23,14.17 18.33,13 16,13 L16,13 Z"></path>
</svg>

<svg id="icon-search" width="24" height="24" viewBox="0 0 24 24" x="0" y="125">
<path fill="#ffffff" d="M15.5,14 L14.71,14 L14.43,13.73 C15.41,12.59 16,11.11 16,9.5 C16,5.91 13.09,3 9.5,3 C5.91,3 3,5.91 3,9.5 C3,13.09 5.91,16 9.5,16 C11.11,16 12.59,15.41 13.73,14.43 L14,14.71 L14,15.5 L19,20.49 L20.49,19 L15.5,14 L15.5,14 Z M9.5,14 C7.01,14 5,11.99 5,9.5 C5,7.01 7.01,5 9.5,5 C11.99,5 14,7.01 14,9.5 C14,11.99 11.99,14 9.5,14 L9.5,14 Z"></path>
</svg>
<svg id="icon-search-active" width="24" height="24" viewBox="0 0 24 24" x="25" y="125">
<path fill="#ffc107" d="M15.5,14 L14.71,14 L14.43,13.73 C15.41,12.59 16,11.11 16,9.5 C16,5.91 13.09,3 9.5,3 C5.91,3 3,5.91 3,9.5 C3,13.09 5.91,16 9.5,16 C11.11,16 12.59,15.41 13.73,14.43 L14,14.71 L14,15.5 L19,20.49 L20.49,19 L15.5,14 L15.5,14 Z M9.5,14 C7.01,14 5,11.99 5,9.5 C5,7.01 7.01,5 9.5,5 C11.99,5 14,7.01 14,9.5 C14,11.99 11.99,14 9.5,14 L9.5,14 Z"></path>
</svg>

<svg id="icon-camera" width="24" height="24" viewBox="0 0 24 24" x="25" y="150">
    <circle fill="#ffc107" cx="12" cy="12" r="3.2"></circle>
    <path fill="#ffc107" d="M9,2 L7.17,4 L4,4 C2.9,4 2,4.9 2,6 L2,18 C2,19.1 2.9,20 4,20 L20,20 C21.1,20 22,19.1 22,18 L22,6 C22,4.9 21.1,4 20,4 L16.83,4 L15,2 L9,2 L9,2 Z M12,17 C9.24,17 7,14.76 7,12 C7,9.24 9.24,7 12,7 C14.76,7 17,9.24 17,12 C17,14.76 14.76,17 12,17 L12,17 Z"></path>
</svg>

<svg id="icon-collections" width="24" height="24" viewBox="0 0 24 24" x="0" y="150">
    <path fill="#ffffff" d="M22,16 L22,4 C22,2.9 21.1,2 20,2 L8,2 C6.9,2 6,2.9 6,4 L6,16 C6,17.1 6.9,18 8,18 L20,18 C21.1,18 22,17.1 22,16 L22,16 Z M11,12 L13.03,14.71 L16,11 L20,16 L8,16 L11,12 L11,12 Z M2,6 L2,20 C2,21.1 2.9,22 4,22 L18,22 L18,20 L4,20 L4,6 L2,6 L2,6 Z"></path>
</svg>

<svg id="icon-collections-orange" width="24" height="24" viewBox="0 0 24 24" x="25" y="175">
    <path fill="#ffc107" d="M22,16 L22,4 C22,2.9 21.1,2 20,2 L8,2 C6.9,2 6,2.9 6,4 L6,16 C6,17.1 6.9,18 8,18 L20,18 C21.1,18 22,17.1 22,16 L22,16 Z M11,12 L13.03,14.71 L16,11 L20,16 L8,16 L11,12 L11,12 Z M2,6 L2,20 C2,21.1 2.9,22 4,22 L18,22 L18,20 L4,20 L4,6 L2,6 L2,6 Z"></path>
</svg>

<svg id="icon-add-group" width="24" height="24" viewBox="0 0 24 24" x="0" y="175">
    <path fill="#ffffff" d="M8,10 L5,10 L5,7 L3,7 L3,10 L0,10 L0,12 L3,12 L3,15 L5,15 L5,12 L8,12 L8,10 L8,10 Z M18,11 C19.66,11 20.99,9.66 20.99,8 C20.99,6.34 19.66,5 18,5 C17.68,5 17.37,5.05 17.09,5.14 C17.66,5.95 17.99,6.93 17.99,8 C17.99,9.07 17.65,10.04 17.09,10.86 C17.37,10.95 17.68,11 18,11 L18,11 Z M13,11 C14.66,11 15.99,9.66 15.99,8 C15.99,6.34 14.66,5 13,5 C11.34,5 10,6.34 10,8 C10,9.66 11.34,11 13,11 L13,11 Z M19.62,13.16 C20.45,13.89 21,14.82 21,16 L21,18 L24,18 L24,16 C24,14.46 21.63,13.51 19.62,13.16 L19.62,13.16 Z M13,13 C11,13 7,14 7,16 L7,18 L19,18 L19,16 C19,14 15,13 13,13 L13,13 Z"></path>
</svg>
<svg id="icon-add-group-active" width="24" height="24" viewBox="0 0 24 24" x="25" y="225">
    <path fill="#ffc107" d="M8,10 L5,10 L5,7 L3,7 L3,10 L0,10 L0,12 L3,12 L3,15 L5,15 L5,12 L8,12 L8,10 L8,10 Z M18,11 C19.66,11 20.99,9.66 20.99,8 C20.99,6.34 19.66,5 18,5 C17.68,5 17.37,5.05 17.09,5.14 C17.66,5.95 17.99,6.93 17.99,8 C17.99,9.07 17.65,10.04 17.09,10.86 C17.37,10.95 17.68,11 18,11 L18,11 Z M13,11 C14.66,11 15.99,9.66 15.99,8 C15.99,6.34 14.66,5 13,5 C11.34,5 10,6.34 10,8 C10,9.66 11.34,11 13,11 L13,11 Z M19.62,13.16 C20.45,13.89 21,14.82 21,16 L21,18 L24,18 L24,16 C24,14.46 21.63,13.51 19.62,13.16 L19.62,13.16 Z M13,13 C11,13 7,14 7,16 L7,18 L19,18 L19,16 C19,14 15,13 13,13 L13,13 Z"></path>
</svg>

<svg id="icon-add-note" width="24" height="24" viewBox="0 0 24 24" x="0" y="200">
    <path fill="#ffffff" d="M14,2 L6,2 C4.9,2 4.01,2.9 4.01,4 L4,20 C4,21.1 4.89,22 5.99,22 L18,22 C19.1,22 20,21.1 20,20 L20,8 L14,2 L14,2 Z M16,16 L13,16 L13,19 L11,19 L11,16 L8,16 L8,14 L11,14 L11,11 L13,11 L13,14 L16,14 L16,16 L16,16 Z M13,9 L13,3.5 L18.5,9 L13,9 L13,9 Z"></path>
</svg>
<svg id="icon-add-note-active" width="24" height="24" viewBox="0 0 24 24" x="25" y="200">
    <path fill="#ffc107" d="M14,2 L6,2 C4.9,2 4.01,2.9 4.01,4 L4,20 C4,21.1 4.89,22 5.99,22 L18,22 C19.1,22 20,21.1 20,20 L20,8 L14,2 L14,2 Z M16,16 L13,16 L13,19 L11,19 L11,16 L8,16 L8,14 L11,14 L11,11 L13,11 L13,14 L16,14 L16,16 L16,16 Z M13,9 L13,3.5 L18.5,9 L13,9 L13,9 Z"></path>
</svg>
<svg id="icon-more-v" width="24" height="24" viewBox="0 0 24 24" x="0" y="225">
    <path fill="#fff" d="M6,10 C4.9,10 4,10.9 4,12 C4,13.1 4.9,14 6,14 C7.1,14 8,13.1 8,12 C8,10.9 7.1,10 6,10 L6,10 Z M18,10 C16.9,10 16,10.9 16,12 C16,13.1 16.9,14 18,14 C19.1,14 20,13.1 20,12 C20,10.9 19.1,10 18,10 L18,10 Z M12,10 C10.9,10 10,10.9 10,12 C10,13.1 10.9,14 12,14 C13.1,14 14,13.1 14,12 C14,10.9 13.1,10 12,10 L12,10 Z"></path>
</svg>
<svg id="icon-close" width="24px" height="24px" viewBox="0 0 24 24" x="0" y="250">
    <defs>
        <polygon id="path_close" points="19 6.41 17.59 5 12 10.59 6.41 5 5 6.41 10.59 12 5 17.59 6.41 19 12 13.41 17.59 19 19 17.59 13.41 12"></polygon>
    </defs>
    <g id="Shape1">
        <use fill="#FFFFFF" fill-rule="evenodd" xlink:href="#path_close"></use>
    </g>
</svg>
<svg id="icon-close-active" width="24px" height="24px" viewBox="0 0 24 24" x="25" y="250">
    <defs>
        <polygon id="path_close" points="19 6.41 17.59 5 12 10.59 6.41 5 5 6.41 10.59 12 5 17.59 6.41 19 12 13.41 17.59 19 19 17.59 13.41 12"></polygon>
    </defs>
    <g id="Shape1">
        <use fill="#ffc107" fill-rule="evenodd" xlink:href="#path_close"></use>
    </g>
</svg>
<svg id="icon-check-circle" width="24" height="24" viewBox="0 0 24 24" x="0" y="275">
    <path fill="#fff" d="M12,2 C6.48,2 2,6.48 2,12 C2,17.52 6.48,22 12,22 C17.52,22 22,17.52 22,12 C22,6.48 17.52,2 12,2 L12,2 Z M10,17 L5,12 L6.41,10.59 L10,14.17 L17.59,6.58 L19,8 L10,17 L10,17 Z"></path>
</svg>
<svg id="icon-fb" width="24" height="24" viewBox="0 0 24 24"  x="0" y="300">
    <path d="M14.3008,7.60025514 C13.984,7.60025514 13.6672,7.96660563 13.6672,8.46659534 L13.6672,10.1665604 L16.8,10.1665604 L16.8,12.6334849 L13.6672,12.6334849 L13.6672,20 L10.6752,20 L10.6752,12.6334849 L8,12.6334849 L8,10.1665604 L10.6752,10.1665604 L10.6752,8.73325652 C10.6752,6.66663237 12.224,5 14.3008,5 L16.8,5 L16.8,7.60025514 L14.3008,7.60025514" id="Imported-Layers" fill="#FFFFFF"></path>
</svg>
<svg id="icon-fb-large" width="24px" height="24px" viewBox="0 0 14 24" x="0" y="325">
    <g stroke="none" stroke-width="1" fill="none" fill-rule="evenodd">
        <g transform="translate(-579.000000, -665.000000)" fill="#FFFFFF">
            <g transform="translate(261.000000, 202.000000)">
                <g transform="translate(302.000000, 453.000000)">
                    <path fill="#FFFFFF" d="M26.024,14.1604082 C25.52,14.1604082 25.016,14.746569 25.016,15.5465525 L25.016,18.2664966 L30,18.2664966 L30,22.2135759 L25.016,22.2135759 L25.016,34 L20.256,34 L20.256,22.2135759 L16,22.2135759 L16,18.2664966 L20.256,18.2664966 L20.256,15.9732104 C20.256,12.6666118 22.72,10 26.024,10 L30,10 L30,14.1604082 L26.024,14.1604082" id="Imported-Layers"></path>
                </g>
            </g>
        </g>
    </g>
</svg>

<svg id="icon-photo-small" width="24" height="24" viewBox="0 0 24 24" x="0" y="350">
    <circle fill="#fff" cx="12" cy="12" r="3.2"></circle>
    <path fill="#fff" d="M9,2 L7.17,4 L4,4 C2.9,4 2,4.9 2,6 L2,18 C2,19.1 2.9,20 4,20 L20,20 C21.1,20 22,19.1 22,18 L22,6 C22,4.9 21.1,4 20,4 L16.83,4 L15,2 L9,2 L9,2 Z M12,17 C9.24,17 7,14.76 7,12 C7,9.24 9.24,7 12,7 C14.76,7 17,9.24 17,12 C17,14.76 14.76,17 12,17 L12,17 Z"></path>
</svg>

<svg id="icon-arrow-left" width="24" height="24" viewBox="0 0 24 24" x="0" y="375">
    <polygon fill="#fff" points="20 11 7.83 11 13.42 5.41 12 4 4 12 12 20 13.41 18.59 7.83 13 20 13"></polygon>
</svg>
<svg id="icon-add-camera-small" width="24" height="24" viewBox="0 0 43 40" x="0" y="400">
    <mask id="mask-camera-add" fill="white">
        <polygon id="icon-camera-add" points="44 44 0 44 0 0 44 0"></polygon>
        <circle fill="#fff" cx="12" cy="12" r="3.2"></circle>
        <path fill="#fff" d="M9,2 L7.17,4 L4,4 C2.9,4 2,4.9 2,6 L2,18 C2,19.1 2.9,20 4,20 L20,20 C21.1,20 22,19.1 22,18 L22,6 C22,4.9 21.1,4 20,4 L16.83,4 L15,2 L9,2 L9,2 Z M12,17 C9.24,17 7,14.76 7,12 C7,9.24 9.24,7 12,7 C14.76,7 17,9.24 17,12 C17,14.76 14.76,17 12,17 L12,17 Z"></path>
    </mask>
    <path d="M5.5,7.33333333 L5.5,1.83333333 L9.16666667,1.83333333 L9.16666667,7.33333333 L14.6666667,7.33333333 L14.6666667,11 L9.16666667,11 L9.16666667,16.5 L5.5,16.5 L5.5,11 L0,11 L0,7.33333333 L5.5,7.33333333 L5.5,7.33333333 Z M11,18.3333333 L11,12.8333333 L16.5,12.8333333 L16.5,7.33333333 L29.3333333,7.33333333 L32.6883333,11 L38.5,11 C40.5166667,11 42.1666667,12.65 42.1666667,14.6666667 L42.1666667,36.6666667 C42.1666667,38.6833333 40.5166667,40.3333333 38.5,40.3333333 L9.16666667,40.3333333 C7.15,40.3333333 5.5,38.6833333 5.5,36.6666667 L5.5,18.3333333 L11,18.3333333 L11,18.3333333 Z M23.8333333,34.8333333 C28.8933333,34.8333333 33,30.7266667 33,25.6666667 C33,20.6066667 28.8933333,16.5 23.8333333,16.5 C18.7733333,16.5 14.6666667,20.6066667 14.6666667,25.6666667 C14.6666667,30.7266667 18.7733333,34.8333333 23.8333333,34.8333333 L23.8333333,34.8333333 Z M17.9666667,25.6666667 C17.9666667,28.9116667 20.5883333,31.5333333 23.8333333,31.5333333 C27.0783333,31.5333333 29.7,28.9116667 29.7,25.6666667 C29.7,22.4216667 27.0783333,19.8 23.8333333,19.8 C20.5883333,19.8 17.9666667,22.4216667 17.9666667,25.6666667 L17.9666667,25.6666667 Z" fill="#fff" mask="url(#mask-camera-add)"></path>
</svg>



<!-- ***************************************************************************************************************** -->
<!-- X 50 -->
<!-- ***************************************************************************************************************** -->

<svg id="icon-mail" width="24" height="24" viewBox="0 0 24 24" x="50" y="0">
    <path fill="#d4d4d4" d="M20,4 L4,4 C2.9,4 2.01,4.9 2.01,6 L2,18 C2,19.1 2.9,20 4,20 L20,20 C21.1,20 22,19.1 22,18 L22,6 C22,4.9 21.1,4 20,4 L20,4 Z M20,8 L12,13 L4,8 L4,6 L12,11 L20,6 L20,8 L20,8 Z"></path>
</svg>
<svg id="icon-favorite" width="24" height="24" viewBox="0 0 24 24" x="50" y="25">
    <path fill="#d4d4d4" d="M12,21.35 L10.55,20.03 C5.4,15.36 2,12.28 2,8.5 C2,5.42 4.42,3 7.5,3 C9.24,3 10.91,3.81 12,5.09 C13.09,3.81 14.76,3 16.5,3 C19.58,3 22,5.42 22,8.5 C22,12.28 18.6,15.36 13.45,20.04 L12,21.35 L12,21.35 Z"></path>
</svg>
<svg id="icon-reply" width="24" height="24" viewBox="0 0 24 24" x="50" y="50">
    <path fill="#d4d4d4" d="M10,9 L10,5 L3,12 L10,19 L10,14.9 C15,14.9 18.5,16.5 21,20 C20,15 17,10 10,9 L10,9 Z"></path>
</svg>
<svg id="icon-more" width="24" height="24" viewBox="0 0 24 24" x="50" y="75">
    <path fill="#d4d4d4" d="M6,10 C4.9,10 4,10.9 4,12 C4,13.1 4.9,14 6,14 C7.1,14 8,13.1 8,12 C8,10.9 7.1,10 6,10 L6,10 Z M18,10 C16.9,10 16,10.9 16,12 C16,13.1 16.9,14 18,14 C19.1,14 20,13.1 20,12 C20,10.9 19.1,10 18,10 L18,10 Z M12,10 C10.9,10 10,10.9 10,12 C10,13.1 10.9,14 12,14 C13.1,14 14,13.1 14,12 C14,10.9 13.1,10 12,10 L12,10 Z"></path>
</svg>
<svg id="icon-attention" width="24" height="24" viewBox="0 0 24 24" x="50" y="100">
    <path fill="#d4d4d4" d="M23,11.46 L20.56,8.68 L20.9,5 L17.29,4.18 L15.4,1 L12,2.46 L8.6,1 L6.71,4.18 L3.1,4.99 L3.44,8.67 L1,11.46 L3.44,14.24 L3.1,17.93 L6.71,18.75 L8.6,21.93 L12,20.46 L15.4,21.92 L17.29,18.74 L20.9,17.92 L20.56,14.24 L23,11.46 L23,11.46 Z M13,16.46 L11,16.46 L11,14.46 L13,14.46 L13,16.46 L13,16.46 Z M13,12.46 L11,12.46 L11,6.46 L13,6.46 L13,12.46 L13,12.46 Z"></path>
</svg>
<svg id="icon-message" width="24" height="24" viewBox="0 0 24 24" x="50" y="125">
    <path fill="#d4d4d4" d="M20,2 L4,2 C2.9,2 2.01,2.9 2.01,4 L2,22 L6,18 L20,18 C21.1,18 22,17.1 22,16 L22,4 C22,2.9 21.1,2 20,2 L20,2 Z M18,14 L6,14 L6,12 L18,12 L18,14 L18,14 Z M18,11 L6,11 L6,9 L18,9 L18,11 L18,11 Z M18,8 L6,8 L6,6 L18,6 L18,8 L18,8 Z"></path>
</svg>
<svg id="icon-repost" width="24" height="24" viewBox="0 0 24 24" x="50" y="150">
    <path fill="#d4d4d4" d="M4,17.25 L8.25,13 L8.25,16.25 L18.25,16.25 L18.25,11.75 L20.25,9.75 L20.25,16.25 C20.25,17.3545695 19.3545695,18.25 18.25,18.25 L8.25,18.25 L8.25,21.5 L4,17.25 L4,17.25 Z M20.5,7.25 L16.25,11.5 L16.25,8.25 L6.25,8.25 L6.25,12.75 L4.25,14.75 L4.25,8.25 C4.25,7.1454305 5.1454305,6.25 6.25,6.25 L16.25,6.25 L16.25,3 L20.5,7.25 L20.5,7.25 Z"></path>
</svg>
<svg id="icon-check" width="24" height="24" viewBox="0 0 24 24" x="50" y="175">
    <polygon fill="#d4d4d4" points="9 16.17 4.83 12 3.41 13.41 9 19 21 7 19.59 5.59"></polygon>
</svg>
<svg id="icon-invite" width="24" height="24" viewBox="0 0 24 24" x="50" y="200">
    <path fill="#d4d4d4" d="M15,12 C17.21,12 19,10.21 19,8 C19,5.79 17.21,4 15,4 C12.79,4 11,5.79 11,8 C11,10.21 12.79,12 15,12 L15,12 Z M6,10 L6,7 L4,7 L4,10 L1,10 L1,12 L4,12 L4,15 L6,15 L6,12 L9,12 L9,10 L6,10 L6,10 Z M15,14 C12.33,14 7,15.34 7,18 L7,20 L23,20 L23,18 C23,15.34 17.67,14 15,14 L15,14 Z"></path>
</svg>
<svg id="icon-add-email" width="24" height="24" viewBox="0 0 24 24" x="50" y="225">
    <path fill="#d4d4d4" d="M6.6,8 L9,8 L9,5 L21,5 C22.1,5 23,5.9 23,7 L23,19 C23,20.1 22.1,21 21,21 L5,21 C3.9,21 3,20.1 3,19 L3.00656435,11.1227801 L6,11.1227803 L6,9.625 L13,14 L21,9 L21,7 L13,12 L6.6,8 Z M3,5 L3,2 L5,2 L5,5 L8,5 L8,7 L5,7 L5,10 L3,10 L3,7 L0,7 L0,5 L3,5 Z"></path>
</svg>

<svg id="icon-account" width="24" height="24" viewBox="0 0 24 24" x="50" y="250">
    <path fill="#d4d4d4" d="m12 12.25c1.24 0 2.25-1.01 2.25-2.25s-1.01-2.25-2.25-2.25-2.25 1.01-2.25 2.25 1.01 2.25 2.25 2.25zm4.5 4c0-1.5-3-2.25-4.5-2.25s-4.5 0.75-4.5 2.25v0.75h9v-0.75zm2.5-13.25h-14c-1.1 0-2 0.9-2 2v14c0 1.1 0.9 2 2 2h14c1.1 0 2-0.9 2-2v-14c0-1.1-0.9-2-2-2zm0 16h-14v-14h14v14z"/>
</svg>
<svg id="icon-person-add" width="24" height="24" viewBox="0 0 24 24" x="50" y="275">
    <path fill="#d4d4d4" d="M15,12 C17.21,12 19,10.21 19,8 C19,5.79 17.21,4 15,4 C12.79,4 11,5.79 11,8 C11,10.21 12.79,12 15,12 L15,12 Z M15,14 C12.33,14 7,15.34 7,18 L7,20 L23,20 L23,18 C23,15.34 17.67,14 15,14 Z M5,11.6521739 L8.09166667,14 L6.90833333,10.2086957 L10,7.91304348 L6.20833333,7.91304348 L5,4 L3.79166667,7.91304348 L0,7.91304348 L3.09166667,10.2086957 L1.90833333,14 L5,11.6521739 Z"></path>
</svg>
<svg id="icon-add-note-gray" width="24" height="24" viewBox="0 0 24 24" x="50" y="300">
    <path fill="#d4d4d4" d="M14,2 L6,2 C4.9,2 4.01,2.9 4.01,4 L4,20 C4,21.1 4.89,22 5.99,22 L18,22 C19.1,22 20,21.1 20,20 L20,8 L14,2 L14,2 Z M16,16 L13,16 L13,19 L11,19 L11,16 L8,16 L8,14 L11,14 L11,11 L13,11 L13,14 L16,14 L16,16 L16,16 Z M13,9 L13,3.5 L18.5,9 L13,9 L13,9 Z"></path>
</svg>
<svg id="icon-ads-posts" width="24" height="24" viewBox="0 0 24 24" x="50" y="325">
    <path fill="#d4d4d4" d="M22,13 L14,13 L14,11 L22,11 L22,13 L22,13 Z M22,7 L14,7 L14,9 L22,9 L22,7 L22,7 Z M14,17 L22,17 L22,15 L14,15 L14,17 L14,17 Z M12,9 L12,15 C12,16.1 11.1,17 10,17 L4,17 C2.9,17 2,16.1 2,15 L2,9 C2,7.9 2.9,7 4,7 L10,7 C11.1,7 12,7.9 12,9 L12,9 Z M10.5,15 L8.25,12 L6.5,14.26 L5.25,12.75 L3.5,15 L10.5,15 L10.5,15 Z" ></path>
</svg>
<svg id="icon-person" width="24" height="24" viewBox="0 0 24 24" x="50" y="350">
    <path fill="#d4d4d4" d="M12,12 C14.21,12 16,10.21 16,8 C16,5.79 14.21,4 12,4 C9.79,4 8,5.79 8,8 C8,10.21 9.79,12 12,12 L12,12 Z M12,14 C9.33,14 4,15.34 4,18 L4,20 L20,20 L20,18 C20,15.34 14.67,14 12,14 L12,14 Z"></path>
</svg>
<svg id="icon-add-group-gray" width="24" height="24" viewBox="0 0 24 24" x="50" y="375">
    <path fill="#d4d4d4" d="M8,10 L5,10 L5,7 L3,7 L3,10 L0,10 L0,12 L3,12 L3,15 L5,15 L5,12 L8,12 L8,10 L8,10 Z M18,11 C19.66,11 20.99,9.66 20.99,8 C20.99,6.34 19.66,5 18,5 C17.68,5 17.37,5.05 17.09,5.14 C17.66,5.95 17.99,6.93 17.99,8 C17.99,9.07 17.65,10.04 17.09,10.86 C17.37,10.95 17.68,11 18,11 L18,11 Z M13,11 C14.66,11 15.99,9.66 15.99,8 C15.99,6.34 14.66,5 13,5 C11.34,5 10,6.34 10,8 C10,9.66 11.34,11 13,11 L13,11 Z M19.62,13.16 C20.45,13.89 21,14.82 21,16 L21,18 L24,18 L24,16 C24,14.46 21.63,13.51 19.62,13.16 L19.62,13.16 Z M13,13 C11,13 7,14 7,16 L7,18 L19,18 L19,16 C19,14 15,13 13,13 L13,13 Z"></path>
</svg>
<svg id="icon-settings" width="24" height="24" viewBox="0 0 24 24" x="50" y="400">
    <path fill="#d4d4d4" d="M19.43,12.98 C19.47,12.66 19.5,12.34 19.5,12 C19.5,11.66 19.47,11.34 19.43,11.02 L21.54,9.37 C21.73,9.22 21.78,8.95 21.66,8.73 L19.66,5.27 C19.54,5.05 19.27,4.97 19.05,5.05 L16.56,6.05 C16.04,5.65 15.48,5.32 14.87,5.07 L14.49,2.42 C14.46,2.18 14.25,2 14,2 L10,2 C9.75,2 9.54,2.18 9.51,2.42 L9.13,5.07 C8.52,5.32 7.96,5.66 7.44,6.05 L4.95,5.05 C4.72,4.96 4.46,5.05 4.34,5.27 L2.34,8.73 C2.21,8.95 2.27,9.22 2.46,9.37 L4.57,11.02 C4.53,11.34 4.5,11.67 4.5,12 C4.5,12.33 4.53,12.66 4.57,12.98 L2.46,14.63 C2.27,14.78 2.22,15.05 2.34,15.27 L4.34,18.73 C4.46,18.95 4.73,19.03 4.95,18.95 L7.44,17.95 C7.96,18.35 8.52,18.68 9.13,18.93 L9.51,21.58 C9.54,21.82 9.75,22 10,22 L14,22 C14.25,22 14.46,21.82 14.49,21.58 L14.87,18.93 C15.48,18.68 16.04,18.34 16.56,17.95 L19.05,18.95 C19.28,19.04 19.54,18.95 19.66,18.73 L21.66,15.27 C21.78,15.05 21.73,14.78 21.54,14.63 L19.43,12.98 L19.43,12.98 Z M12,15.5 C10.07,15.5 8.5,13.93 8.5,12 C8.5,10.07 10.07,8.5 12,8.5 C13.93,8.5 15.5,10.07 15.5,12 C15.5,13.93 13.93,15.5 12,15.5 L12,15.5 Z"></path>
</svg>
<svg id="icon-delete" width="24" height="24" viewBox="0 0 24 24" x="50" y="425">
    <path fill="#d4d4d4" d="M6,19 C6,20.1 6.9,21 8,21 L16,21 C17.1,21 18,20.1 18,19 L18,7 L6,7 L6,19 L6,19 Z M19,4 L15.5,4 L14.5,3 L9.5,3 L8.5,4 L5,4 L5,6 L19,6 L19,4 L19,4 Z"></path>
</svg>



<svg id="icon-triangle" width="9" height="6" viewBox="0 0 9 6" x="75" y="0">
    <g id="D_bl_group_des_pic_$" transform="translate(-706.000000, -64.000000)" >
        <g fill="#D4D4D4" transform="translate(19.000000, 64.000000)">
            <polygon fill="#d4d4d4" points="687 0 696 0 691.5 6"></polygon>
        </g>
    </g>
</svg>
<svg id="icon-favorite-active" width="24" height="24" viewBox="0 0 24 24" x="75" y="25">
    <path fill="#e83e2e" d="M12,21.35 L10.55,20.03 C5.4,15.36 2,12.28 2,8.5 C2,5.42 4.42,3 7.5,3 C9.24,3 10.91,3.81 12,5.09 C13.09,3.81 14.76,3 16.5,3 C19.58,3 22,5.42 22,8.5 C22,12.28 18.6,15.36 13.45,20.04 L12,21.35 L12,21.35 Z"></path>
</svg>
<svg id="icon-edit" width="24" height="24" viewBox="0 0 24 24" x="75" y="50">
    <path fill="#4C4013" d="M3,17.25 L3,21 L6.75,21 L17.81,9.94 L14.06,6.19 L3,17.25 L3,17.25 Z M20.71,7.04 C21.1,6.65 21.1,6.02 20.71,5.63 L18.37,3.29 C17.98,2.9 17.35,2.9 16.96,3.29 L15.13,5.12 L18.88,8.87 L20.71,7.04 L20.71,7.04 Z"></path>
</svg>
<svg id="icon-star-small" width="10px" height="10px" viewBox="0 0 40 40" x="75" y="75">
    <g stroke="none" stroke-width="1" fill="none" fill-rule="evenodd">
        <g transform="translate(-278.000000, -233.000000)">
            <g transform="translate(153.000000, 70.000000)">
                <g transform="translate(32.000000, 165.000000)">
                    <g transform="translate(95.000000, 0.000000)">
                        <circle id="Oval-49" stroke="#FFFFFF" stroke-width="2.91666667" fill="#FFC107" cx="17.5" cy="17.5" r="17.5"></circle>
                        <path d="M17.5005425,7 C17.1715499,7.00095372 16.8736424,7.19457188 16.7392078,7.494812 L14.1532952,13.3150873 L7.66554227,14.6138047 C7.36525685,14.6755926 7.12313154,14.8972165 7.03511253,15.1908545 C6.94709353,15.4844924 7.02738992,15.8027417 7.24418291,16.0194908 L11.7629668,20.5344862 L10.5002013,26.9991984 C10.4237923,27.2997392 10.5257379,27.617519 10.7627305,27.8175413 C10.9131932,27.9333831 11.0978915,27.9959427 11.2877889,27.9953849 C11.4032032,27.99582 11.5173606,27.9714244 11.6225137,27.9238537 L17.5005425,25.3178876 L23.3864472,27.9277912 C23.4890347,27.9761602 23.6011911,28.0008318 23.7146087,27.9999786 C23.9018241,27.9999783 24.0835707,27.9368597 24.2304786,27.8208225 C24.4678239,27.620092 24.5716862,27.3027001 24.4989147,27.0005109 L23.2328676,20.5344862 L27.7555895,16.0194908 C27.9728787,15.8025548 28.0531656,15.4836711 27.9645042,15.1897218 C27.8758429,14.8957725 27.632617,14.6744452 27.3316048,14.6138047 L20.8458209,13.3150873 L18.2585956,7.4934995 C18.1249192,7.19428891 17.8282849,7.00117722 17.5005425,7 L17.5005425,7 L17.5005425,7 Z" id="Star" fill="#FFFFFF"></path>
                    </g>
                </g>
            </g>
        </g>
    </g>
</svg>
<svg id="icon-star" width="15px" height="15px" viewBox="0 0 40 40" x="75" y="100">
    <g stroke="none" stroke-width="1" fill="none" fill-rule="evenodd">
        <g transform="translate(-278.000000, -233.000000)">
            <g transform="translate(153.000000, 70.000000)">
                <g transform="translate(32.000000, 165.000000)">
                    <g transform="translate(95.000000, 0.000000)">
                        <circle id="Oval-49" stroke="#FFFFFF" stroke-width="2.91666667" fill="#FFC107" cx="17.5" cy="17.5" r="17.5"></circle>
                        <path d="M17.5005425,7 C17.1715499,7.00095372 16.8736424,7.19457188 16.7392078,7.494812 L14.1532952,13.3150873 L7.66554227,14.6138047 C7.36525685,14.6755926 7.12313154,14.8972165 7.03511253,15.1908545 C6.94709353,15.4844924 7.02738992,15.8027417 7.24418291,16.0194908 L11.7629668,20.5344862 L10.5002013,26.9991984 C10.4237923,27.2997392 10.5257379,27.617519 10.7627305,27.8175413 C10.9131932,27.9333831 11.0978915,27.9959427 11.2877889,27.9953849 C11.4032032,27.99582 11.5173606,27.9714244 11.6225137,27.9238537 L17.5005425,25.3178876 L23.3864472,27.9277912 C23.4890347,27.9761602 23.6011911,28.0008318 23.7146087,27.9999786 C23.9018241,27.9999783 24.0835707,27.9368597 24.2304786,27.8208225 C24.4678239,27.620092 24.5716862,27.3027001 24.4989147,27.0005109 L23.2328676,20.5344862 L27.7555895,16.0194908 C27.9728787,15.8025548 28.0531656,15.4836711 27.9645042,15.1897218 C27.8758429,14.8957725 27.632617,14.6744452 27.3316048,14.6138047 L20.8458209,13.3150873 L18.2585956,7.4934995 C18.1249192,7.19428891 17.8282849,7.00117722 17.5005425,7 L17.5005425,7 L17.5005425,7 Z" id="Star" fill="#FFFFFF"></path>
                    </g>
                </g>
            </g>
        </g>
    </g>
</svg>
<svg id="icon-star-middle" width="20px" height="20px" viewBox="0 0 40 40" x="75" y="125">
    <g id="stars-middle" stroke="none" stroke-width="1" fill="none" fill-rule="evenodd">
        <g id="stars-middle_D" transform="translate(-278.000000, -233.000000)">
            <g id="stars-middle-copy" transform="translate(153.000000, 70.000000)">
                <g id="stars-middle-photo" transform="translate(32.000000, 165.000000)">
                    <g transform="translate(95.000000, 0.000000)">
                        <circle id="Oval-49" stroke="#FFFFFF" stroke-width="2.91666667" fill="#FFC107" cx="17.5" cy="17.5" r="17.5"></circle>
                        <path d="M17.5005425,7 C17.1715499,7.00095372 16.8736424,7.19457188 16.7392078,7.494812 L14.1532952,13.3150873 L7.66554227,14.6138047 C7.36525685,14.6755926 7.12313154,14.8972165 7.03511253,15.1908545 C6.94709353,15.4844924 7.02738992,15.8027417 7.24418291,16.0194908 L11.7629668,20.5344862 L10.5002013,26.9991984 C10.4237923,27.2997392 10.5257379,27.617519 10.7627305,27.8175413 C10.9131932,27.9333831 11.0978915,27.9959427 11.2877889,27.9953849 C11.4032032,27.99582 11.5173606,27.9714244 11.6225137,27.9238537 L17.5005425,25.3178876 L23.3864472,27.9277912 C23.4890347,27.9761602 23.6011911,28.0008318 23.7146087,27.9999786 C23.9018241,27.9999783 24.0835707,27.9368597 24.2304786,27.8208225 C24.4678239,27.620092 24.5716862,27.3027001 24.4989147,27.0005109 L23.2328676,20.5344862 L27.7555895,16.0194908 C27.9728787,15.8025548 28.0531656,15.4836711 27.9645042,15.1897218 C27.8758429,14.8957725 27.632617,14.6744452 27.3316048,14.6138047 L20.8458209,13.3150873 L18.2585956,7.4934995 C18.1249192,7.19428891 17.8282849,7.00117722 17.5005425,7 L17.5005425,7 L17.5005425,7 Z" id="Star" fill="#FFFFFF"></path>
                    </g>
                </g>
            </g>
        </g>
    </g>
</svg>

<svg id="icon-close" width="24px" height="24px" viewBox="0 0 24 24" x="75" y="150">

</svg>

<svg id="icon-logout" width="24" height="24" viewBox="0 0 24 24" x="75" y="175">
    <path fill="#e83e2e" d="M13,3 L11,3 L11,13 L13,13 L13,3 L13,3 Z M17.83,5.17 L16.41,6.59 C17.99,7.86 19,9.81 19,12 C19,15.87 15.87,19 12,19 C8.13,19 5,15.87 5,12 C5,9.81 6.01,7.86 7.58,6.58 L6.17,5.17 C4.23,6.82 3,9.26 3,12 C3,16.97 7.03,21 12,21 C16.97,21 21,16.97 21,12 C21,9.26 19.77,6.82 17.83,5.17 L17.83,5.17 Z"></path>
</svg>
<svg id="icon-edit-gray" width="24" height="24" viewBox="0 0 24 24" x="75" y="200">
    <path fill="#d4d4d4" d="M3,17.25 L3,21 L6.75,21 L17.81,9.94 L14.06,6.19 L3,17.25 L3,17.25 Z M20.71,7.04 C21.1,6.65 21.1,6.02 20.71,5.63 L18.37,3.29 C17.98,2.9 17.35,2.9 16.96,3.29 L15.13,5.12 L18.88,8.87 L20.71,7.04 L20.71,7.04 Z"></path>
</svg>
<svg id="icon-people-gray" width="24" height="24" viewBox="0 0 24 24" x="75" y="225">
    <path fill="#d4d4d4" d="M16,11 C17.66,11 18.99,9.66 18.99,8 C18.99,6.34 17.66,5 16,5 C14.34,5 13,6.34 13,8 C13,9.66 14.34,11 16,11 L16,11 Z M8,11 C9.66,11 10.99,9.66 10.99,8 C10.99,6.34 9.66,5 8,5 C6.34,5 5,6.34 5,8 C5,9.66 6.34,11 8,11 L8,11 Z M8,13 C5.67,13 1,14.17 1,16.5 L1,19 L15,19 L15,16.5 C15,14.17 10.33,13 8,13 L8,13 Z M16,13 C15.71,13 15.38,13.02 15.03,13.05 C16.19,13.89 17,15.02 17,16.5 L17,19 L23,19 L23,16.5 C23,14.17 18.33,13 16,13 L16,13 Z"></path>
</svg>

<svg id="icon-chat" width="24" height="24" viewBox="0 0 24 24" x="75" y="250">
    <path fill="#d4d4d4" d="M20,2 L4,2 C2.9,2 2,2.9 2,4 L2,22 L6,18 L20,18 C21.1,18 22,17.1 22,16 L22,4 C22,2.9 21.1,2 20,2 L20,2 Z"></path>
</svg>
<svg id="icon-warning" width="24" height="24" viewBox="0 0 24 24" x="75" y="275">
    <path fill="#e83e2e" d="M1,21 L23,21 L12,2 L1,21 L1,21 Z M13,18 L11,18 L11,16 L13,16 L13,18 L13,18 Z M13,14 L11,14 L11,10 L13,10 L13,14 L13,14 Z"></path>
</svg>
<svg id="icon-key" width="24" height="24" viewBox="0 0 24 24" x="75" y="300">
    <path fill="#d4d4d4" d="M12.65,10 C11.83,7.67 9.61,6 7,6 C3.69,6 1,8.69 1,12 C1,15.31 3.69,18 7,18 C9.61,18 11.83,16.33 12.65,14 L17,14 L17,18 L21,18 L21,14 L23,14 L23,10 L12.65,10 L12.65,10 Z M7,14 C5.9,14 5,13.1 5,12 C5,10.9 5.9,10 7,10 C8.1,10 9,10.9 9,12 C9,13.1 8.1,14 7,14 L7,14 Z"></path>
</svg>
<svg id="icon-description" width="24" height="24" viewBox="0 0 24 24" x="75" y="325">
    <path fill="#d4d4d4" d="M14,2 L6,2 C4.9,2 4.01,2.9 4.01,4 L4,20 C4,21.1 4.89,22 5.99,22 L18,22 C19.1,22 20,21.1 20,20 L20,8 L14,2 L14,2 Z M16,18 L8,18 L8,16 L16,16 L16,18 L16,18 Z M16,14 L8,14 L8,12 L16,12 L16,14 L16,14 Z M13,9 L13,3.5 L18.5,9 L13,9 L13,9 Z"></path>
</svg>



<!-- ***************************************************************************************************************** -->
<!-- X 100 -->
<!-- ***************************************************************************************************************** -->

<svg id="icon-watch" width="24" height="24" viewBox="0 0 24 24"  x="100" y="0">
     <g id="watch" stroke="none" stroke-width="1" fill="none" fill-rule="evenodd">
        <mask id="mask-2" fill="white">
            <polygon id="path-1" points="0 0 24 0 24 24 0 24"></polygon>
        </mask>
        <path d="M12,2 C6.5,2 2,6.5 2,12 C2,17.5 6.5,22 12,22 C17.5,22 22,17.5 22,12 C22,6.5 17.5,2 12,2 L12,2 Z M16.2,16.2 L11,13 L11,7 L12.5,7 L12.5,12.2 L17,14.9 L16.2,16.2 L16.2,16.2 Z" id="Shape" fill="#d4d4d4" mask="url(#mask-2)"></path>
    </g>
</svg>

<svg id="icon-call" width="24" height="24" viewBox="0 0 24 24" x="100" y="25">
     <path d="M6.62,10.79 C8.06,13.62 10.38,15.93 13.21,17.38 L15.41,15.18 C15.68,14.91 16.08,14.82 16.43,14.94 C17.55,15.31 18.76,15.51 20,15.51 C20.55,15.51 21,15.96 21,16.51 L21,20 C21,20.55 20.55,21 20,21 C10.61,21 3,13.39 3,4 C3,3.45 3.45,3 4,3 L7.5,3 C8.05,3 8.5,3.45 8.5,4 C8.5,5.25 8.7,6.45 9.07,7.57 C9.18,7.92 9.1,8.31 8.82,8.59 L6.62,10.79 L6.62,10.79 Z" id="Shape" fill="#d4d4d4"></path>
</svg>

<svg id="icon-web" width="24" height="24" viewBox="0 0 24 24" x="100" y="50">
     <path d="M11.99,2 C6.47,2 2,6.48 2,12 C2,17.52 6.47,22 11.99,22 C17.52,22 22,17.52 22,12 C22,6.48 17.52,2 11.99,2 L11.99,2 Z M18.92,8 L15.97,8 C15.65,6.75 15.19,5.55 14.59,4.44 C16.43,5.07 17.96,6.35 18.92,8 L18.92,8 Z M12,4.04 C12.83,5.24 13.48,6.57 13.91,8 L10.09,8 C10.52,6.57 11.17,5.24 12,4.04 L12,4.04 Z M4.26,14 C4.1,13.36 4,12.69 4,12 C4,11.31 4.1,10.64 4.26,10 L7.64,10 C7.56,10.66 7.5,11.32 7.5,12 C7.5,12.68 7.56,13.34 7.64,14 L4.26,14 L4.26,14 Z M5.08,16 L8.03,16 C8.35,17.25 8.81,18.45 9.41,19.56 C7.57,18.93 6.04,17.66 5.08,16 L5.08,16 Z M8.03,8 L5.08,8 C6.04,6.34 7.57,5.07 9.41,4.44 C8.81,5.55 8.35,6.75 8.03,8 L8.03,8 Z M12,19.96 C11.17,18.76 10.52,17.43 10.09,16 L13.91,16 C13.48,17.43 12.83,18.76 12,19.96 L12,19.96 Z M14.34,14 L9.66,14 C9.57,13.34 9.5,12.68 9.5,12 C9.5,11.32 9.57,10.65 9.66,10 L14.34,10 C14.43,10.65 14.5,11.32 14.5,12 C14.5,12.68 14.43,13.34 14.34,14 L14.34,14 Z M14.59,19.56 C15.19,18.45 15.65,17.25 15.97,16 L18.92,16 C17.96,17.65 16.43,18.93 14.59,19.56 L14.59,19.56 Z M16.36,14 C16.44,13.34 16.5,12.68 16.5,12 C16.5,11.32 16.44,10.66 16.36,10 L19.74,10 C19.9,10.64 20,11.31 20,12 C20,12.69 19.9,13.36 19.74,14 L16.36,14 L16.36,14 Z" id="Shape" fill="#d4d4d4"></path>
</svg>
<svg id="icon-profile" width="24px" height="24px" viewBox="0 0 24 18" x="100" y="75">
    <mask id="mask-profile" fill="white">
        <path d="M21,5 L21,4 L18,6 L15,4 L15,5 L18,7 L21,5 L21,5 Z M22,0 L2,0 C0.9,0 0,0.9 0,2 L0,16 C0,17.1 0.9,18 2,18 L22,18 C23.1,18 23.99,17.1 23.99,16 L24,2 C24,0.9 23.1,0 22,0 L22,0 Z M8,3 C9.66,3 11,4.34 11,6 C11,7.66 9.66,9 8,9 C6.34,9 5,7.66 5,6 C5,4.34 6.34,3 8,3 L8,3 Z M14,15 L2,15 L2,14 C2,12 6,10.9 8,10.9 C10,10.9 14,12 14,14 L14,15 L14,15 Z M22,9 L14,9 L14,3 L22,3 L22,9 L22,9 Z" id="path-1"></path>
    </mask>
    <polygon id="Fill-1" fill="#d4d4d4" mask="url(#mask-profile)" points="-5 -5 29 -5 29 23 -5 23"></polygon>
</svg>
<svg id="icon-map" width="24px" height="24px" viewBox="0 0 14 20" x="100" y="100">
    <g id="Public-profiles" stroke="none" stroke-width="1" fill="none" fill-rule="evenodd">
        <g id="8.2.-Regular-user-profile-(public)-_D" transform="translate(-698.000000, -602.000000)">
            <g id="top_section-copy" transform="translate(153.000000, 70.000000)">
                <g id="info" transform="translate(212.000000, 463.000000)">
                    <g id="map" transform="translate(328.000000, 67.000000)">
                        <path d="M12,2 C8.13,2 5,5.13 5,9 C5,14.25 12,22 12,22 C12,22 19,14.25 19,9 C19,5.13 15.87,2 12,2 L12,2 Z M12,11.5 C10.62,11.5 9.5,10.38 9.5,9 C9.5,7.62 10.62,6.5 12,6.5 C13.38,6.5 14.5,7.62 14.5,9 C14.5,10.38 13.38,11.5 12,11.5 L12,11.5 Z" id="Shape" fill="#d4d4d4"></path>
                    </g>
                </g>
            </g>
        </g>
    </g>
</svg>


<svg id="icon-invite" width="24" height="24" viewBox="0 0 24 24" x="100" y="125">
    <path fill="#4C4013" d="M15,12 C17.21,12 19,10.21 19,8 C19,5.79 17.21,4 15,4 C12.79,4 11,5.79 11,8 C11,10.21 12.79,12 15,12 L15,12 Z M6,10 L6,7 L4,7 L4,10 L1,10 L1,12 L4,12 L4,15 L6,15 L6,12 L9,12 L9,10 L6,10 L6,10 Z M15,14 C12.33,14 7,15.34 7,18 L7,20 L23,20 L23,18 C23,15.34 17.67,14 15,14 L15,14 Z"></path>
</svg>
<svg id="icon-message-active" width="24" height="24" viewBox="0 0 24 24" x="100" y="150">
    <path fill="#00bcd4" d="M20,2 L4,2 C2.9,2 2.01,2.9 2.01,4 L2,22 L6,18 L20,18 C21.1,18 22,17.1 22,16 L22,4 C22,2.9 21.1,2 20,2 L20,2 Z M18,14 L6,14 L6,12 L18,12 L18,14 L18,14 Z M18,11 L6,11 L6,9 L18,9 L18,11 L18,11 Z M18,8 L6,8 L6,6 L18,6 L18,8 L18,8 Z"></path>
</svg>


<!-- ***************************************************************************************************************** -->
<!--  X 125 -->
<!-- ***************************************************************************************************************** -->
<svg id="icon-add-camera" width="44px" height="44px" viewBox="0 0 43 40" x="125" y="0" version="1.1" xmlns="http://www.w3.org/2000/svg" xmlns:xlink="http://www.w3.org/1999/xlink">
    <mask id="mask-camera-add" fill="white">
        <polygon id="icon-camera-add" points="44 44 0 44 0 0 44 0"></polygon>
        <circle fill="#fff" cx="12" cy="12" r="3.2"></circle>
        <path fill="#fff" d="M9,2 L7.17,4 L4,4 C2.9,4 2,4.9 2,6 L2,18 C2,19.1 2.9,20 4,20 L20,20 C21.1,20 22,19.1 22,18 L22,6 C22,4.9 21.1,4 20,4 L16.83,4 L15,2 L9,2 L9,2 Z M12,17 C9.24,17 7,14.76 7,12 C7,9.24 9.24,7 12,7 C14.76,7 17,9.24 17,12 C17,14.76 14.76,17 12,17 L12,17 Z"></path>
    </mask>
    <path d="M5.5,7.33333333 L5.5,1.83333333 L9.16666667,1.83333333 L9.16666667,7.33333333 L14.6666667,7.33333333 L14.6666667,11 L9.16666667,11 L9.16666667,16.5 L5.5,16.5 L5.5,11 L0,11 L0,7.33333333 L5.5,7.33333333 L5.5,7.33333333 Z M11,18.3333333 L11,12.8333333 L16.5,12.8333333 L16.5,7.33333333 L29.3333333,7.33333333 L32.6883333,11 L38.5,11 C40.5166667,11 42.1666667,12.65 42.1666667,14.6666667 L42.1666667,36.6666667 C42.1666667,38.6833333 40.5166667,40.3333333 38.5,40.3333333 L9.16666667,40.3333333 C7.15,40.3333333 5.5,38.6833333 5.5,36.6666667 L5.5,18.3333333 L11,18.3333333 L11,18.3333333 Z M23.8333333,34.8333333 C28.8933333,34.8333333 33,30.7266667 33,25.6666667 C33,20.6066667 28.8933333,16.5 23.8333333,16.5 C18.7733333,16.5 14.6666667,20.6066667 14.6666667,25.6666667 C14.6666667,30.7266667 18.7733333,34.8333333 23.8333333,34.8333333 L23.8333333,34.8333333 Z M17.9666667,25.6666667 C17.9666667,28.9116667 20.5883333,31.5333333 23.8333333,31.5333333 C27.0783333,31.5333333 29.7,28.9116667 29.7,25.6666667 C29.7,22.4216667 27.0783333,19.8 23.8333333,19.8 C20.5883333,19.8 17.9666667,22.4216667 17.9666667,25.6666667 L17.9666667,25.6666667 Z" fill="#fff" mask="url(#mask-camera-add)"></path>
</svg>
<svg id="icon-star-large" width="40px" height="40px" viewBox="0 0 40 40" x="125" y="50">
    <g id="stars" stroke="none" stroke-width="1" fill="none" fill-rule="evenodd">
        <g id="stars_D" transform="translate(-278.000000, -233.000000)">
            <g id="stars-copy" transform="translate(153.000000, 70.000000)">
                <g id="stars-photo" transform="translate(32.000000, 165.000000)">
                    <g id="Badge-Copy" transform="translate(95.000000, 0.000000)">
                        <circle id="Oval-49" stroke="#FFFFFF" stroke-width="2.91666667" fill="#FFC107" cx="17.5" cy="17.5" r="17.5"></circle>
                        <path d="M17.5005425,7 C17.1715499,7.00095372 16.8736424,7.19457188 16.7392078,7.494812 L14.1532952,13.3150873 L7.66554227,14.6138047 C7.36525685,14.6755926 7.12313154,14.8972165 7.03511253,15.1908545 C6.94709353,15.4844924 7.02738992,15.8027417 7.24418291,16.0194908 L11.7629668,20.5344862 L10.5002013,26.9991984 C10.4237923,27.2997392 10.5257379,27.617519 10.7627305,27.8175413 C10.9131932,27.9333831 11.0978915,27.9959427 11.2877889,27.9953849 C11.4032032,27.99582 11.5173606,27.9714244 11.6225137,27.9238537 L17.5005425,25.3178876 L23.3864472,27.9277912 C23.4890347,27.9761602 23.6011911,28.0008318 23.7146087,27.9999786 C23.9018241,27.9999783 24.0835707,27.9368597 24.2304786,27.8208225 C24.4678239,27.620092 24.5716862,27.3027001 24.4989147,27.0005109 L23.2328676,20.5344862 L27.7555895,16.0194908 C27.9728787,15.8025548 28.0531656,15.4836711 27.9645042,15.1897218 C27.8758429,14.8957725 27.632617,14.6744452 27.3316048,14.6138047 L20.8458209,13.3150873 L18.2585956,7.4934995 C18.1249192,7.19428891 17.8282849,7.00117722 17.5005425,7 L17.5005425,7 L17.5005425,7 Z" id="Star" fill="#FFFFFF"></path>
                    </g>
                </g>
            </g>
        </g>
    </g>
</svg>
<svg id="icon-photo" width="40px" height="40px" viewBox="0 0 38 34" x="125" y="100">
    <g stroke="none" stroke-width="1" fill="none" fill-rule="evenodd">
        <g transform="translate(-1152.000000, -103.000000)">
            <g transform="translate(1149.000000, 100.000000)">
                <g id="Group">
                    <circle id="Oval" fill="#FFFFFF" cx="22" cy="22" r="5.86666667"></circle>
                    <path d="M16.5,3.66666667 L13.145,7.33333333 L7.33333333,7.33333333 C5.31666667,7.33333333 3.66666667,8.98333333 3.66666667,11 L3.66666667,33 C3.66666667,35.0166667 5.31666667,36.6666667 7.33333333,36.6666667 L36.6666667,36.6666667 C38.6833333,36.6666667 40.3333333,35.0166667 40.3333333,33 L40.3333333,11 C40.3333333,8.98333333 38.6833333,7.33333333 36.6666667,7.33333333 L30.855,7.33333333 L27.5,3.66666667 L16.5,3.66666667 L16.5,3.66666667 Z M22,31.1666667 C16.94,31.1666667 12.8333333,27.06 12.8333333,22 C12.8333333,16.94 16.94,12.8333333 22,12.8333333 C27.06,12.8333333 31.1666667,16.94 31.1666667,22 C31.1666667,27.06 27.06,31.1666667 22,31.1666667 L22,31.1666667 Z" id="Shape" fill="#FFFFFF"></path>
                    <polygon id="Shape" points="0 0 44 0 44 44 0 44"></polygon>
                </g>
            </g>
        </g>
    </g>
</svg>




</svg>
